<svg xmlns="http://www.w3.org/2000/svg" version="1.1" xmlns:xlink="http://www.w3.org/1999/xlink" xmlns:svgjs="http://svgjs.com/svgjs" width="520" height="520"><svg width="520" height="520" viewBox="0 0 520 520" fill="none" xmlns="http://www.w3.org/2000/svg">
<path fill-rule="evenodd" clip-rule="evenodd" d="M0 118.867C0 100.163 15.1427 85 33.8221 85H435.178C453.857 85 469 100.163 469 118.867V147.5H57.5C57.5 166.204 57.5 340.133 57.5 340.133V374H33.8221C15.1427 374 0 358.837 0 340.133V118.867Z" fill="#672E57"></path>
<g clip-path="url(#clip0_815_2)">
<path fill-rule="evenodd" clip-rule="evenodd" d="M70.9038 152.281C64.4782 152.281 59.2692 157.493 59.2692 163.922V392.078C59.2692 398.507 64.4782 403.719 70.9038 403.719H485.096C491.522 403.719 496.731 398.507 496.731 392.078V163.922C496.731 157.493 491.522 152.281 485.096 152.281H70.9038ZM36 163.922C36 144.635 51.627 129 70.9038 129H485.096C504.373 129 520 144.635 520 163.922V392.078C520 411.365 504.373 427 485.096 427H70.9038C51.627 427 36 411.365 36 392.078V163.922Z" fill="#440231"></path>
<path fill-rule="evenodd" clip-rule="evenodd" d="M70.9038 152.281C64.4782 152.281 59.2692 157.493 59.2692 163.922V392.078C59.2692 398.507 64.4782 403.719 70.9038 403.719H485.096C491.522 403.719 496.731 398.507 496.731 392.078V163.922C496.731 157.493 491.522 152.281 485.096 152.281H70.9038ZM36 163.922C36 144.635 51.627 129 70.9038 129H485.096C504.373 129 520 144.635 520 163.922V392.078C520 411.365 504.373 427 485.096 427H70.9038C51.627 427 36 411.365 36 392.078V163.922Z" fill="#440231"></path>
<path d="M105.808 357.156V198.844H152.346L198.885 257.047L245.423 198.844H291.961V357.156H245.423V266.359L198.885 324.562L152.346 266.359V357.156H105.808Z" fill="#440231"></path>
<path d="M397.138 198.844L466.946 275.672H420.408V357.156H373.869V275.672H327.331L397.138 198.844Z" fill="#440231"></path>
</g>
<defs>
<clipPath id="SvgjsClipPath1000">
<rect width="484" height="298" fill="white" transform="translate(36 129)"></rect>
</clipPath>
</defs>
</svg><style>@media (prefers-color-scheme: light) { :root { filter: none; } }
@media (prefers-color-scheme: dark) { :root { filter: contrast(0.5405405405405405) brightness(3); } }
</style></svg>